<svg width="114" height="17" viewBox="0 0 114 17" fill="none" xmlns="http://www.w3.org/2000/svg">
<path d="M3.13502 16.5394C1.31059 17.5933 0 16.7151 0 15.153C0 13.4902 0 8.50072 0 8.50072C0 8.50072 0 3.51127 0 1.8484C0 0.286352 1.30978 -0.591842 3.13502 0.461991C5.97654 2.10291 14.5003 7.0273 14.5003 7.0273C15.6336 7.68188 15.6336 9.31874 14.5003 9.97332C14.5003 9.97413 5.97654 14.8985 3.13502 16.5394Z" fill="#00C1FF"/>
<path d="M12.5169 16.538C10.6924 17.5918 9.38184 16.7136 9.38184 15.1516C9.38184 13.4887 9.38184 8.49925 9.38184 8.49925C9.38184 8.49925 9.38184 3.50981 9.38184 1.84693C9.38184 0.284888 10.6916 -0.593306 12.5169 0.460526C15.2958 2.06567 23.6325 6.88191 23.6325 6.88191C24.8773 7.60073 24.8773 9.39777 23.6325 10.1166C23.6317 10.1166 15.2958 14.9328 12.5169 16.538Z" fill="#BCEC30"/>
<mask id="mask0_1_798" style="mask-type:alpha" maskUnits="userSpaceOnUse" x="9" y="0" width="16" height="17">
<path d="M12.5169 16.538C10.6924 17.5918 9.38184 16.7136 9.38184 15.1516C9.38184 13.4887 9.38184 8.49925 9.38184 8.49925C9.38184 8.49925 9.38184 3.50981 9.38184 1.84693C9.38184 0.284888 10.6916 -0.593306 12.5169 0.460526C15.2958 2.06567 23.6325 6.88191 23.6325 6.88191C24.8773 7.60073 24.8773 9.39777 23.6325 10.1166C23.6317 10.1166 15.2958 14.9328 12.5169 16.538Z" fill="#6FE4FF"/>
</mask>
<g mask="url(#mask0_1_798)">
<g filter="url(#filter0_f_1_798)">
<path d="M3.13551 16.5394C1.31108 17.5933 0.000488281 16.7151 0.000488281 15.153C0.000488281 13.4902 0.000488281 8.50072 0.000488281 8.50072C0.000488281 8.50072 0.000488281 3.51127 0.000488281 1.8484C0.000488281 0.286352 1.31027 -0.591842 3.13551 0.461991C5.97703 2.10291 14.5008 7.0273 14.5008 7.0273C15.6341 7.68188 15.6341 9.31874 14.5008 9.97332C14.5008 9.97413 5.97703 14.8985 3.13551 16.5394Z" fill="#99D100"/>
</g>
</g>
<path d="M30.5111 11.4692L30.8289 10.7454C31.0456 10.2533 31.4357 10.1231 31.9269 10.4849C32.8659 11.1797 34.4117 11.6863 36.4775 11.6863C38.24 11.6863 38.9913 11.2376 38.9913 10.702C38.9913 10.0941 38.3701 9.93489 37.3443 9.80462L35.004 9.50067C32.1869 9.12434 30.7711 8.11114 30.7711 6.34529C30.7711 4.44917 32.3169 2.94385 35.8997 2.94385C37.8933 2.94385 39.1791 3.24781 40.017 3.56624C40.9416 3.92809 41.0716 4.23205 41.0716 4.98471V5.96896C41.0716 6.57687 40.8549 6.77951 40.2626 6.77951H39.598C38.9913 6.77951 38.789 6.5624 38.789 5.96896V5.65053C38.3989 5.52026 37.431 5.33209 36.3042 5.33209C34.325 5.33209 33.3715 5.69395 33.3715 6.30186C33.3715 6.75057 33.9494 7.0111 35.004 7.15584L37.301 7.4598C40.0748 7.80718 41.5483 8.64669 41.5483 10.6731C41.5483 12.7284 39.598 14.0456 36.1164 14.0456C33.5593 14.0456 31.5079 13.235 30.6845 12.4824C30.3955 12.1929 30.3522 11.831 30.5111 11.4692Z" fill="white"/>
<path d="M55.8783 13.8715H54.6936C54.1158 13.8715 53.928 13.7847 53.639 13.3505L51.4143 10.0648C51.0964 9.61611 50.8508 9.50031 50.1863 9.50031H47.9615V13.061C47.9615 13.6689 47.7448 13.8715 47.1525 13.8715H46.3002C45.6934 13.8715 45.4911 13.6544 45.4911 13.061V2.379H44.6966C44.0898 2.379 43.8876 2.16189 43.8876 1.56845V0.844735C43.8876 0.236819 44.1043 0.0341797 44.6966 0.0341797H47.167C47.7737 0.0341797 47.976 0.251293 47.976 0.844735V7.09759H49.9696C50.6341 7.09759 50.8653 6.99627 51.1976 6.5331L53.0612 3.65273C53.3646 3.20403 53.5524 3.11719 54.1302 3.11719H55.3148C55.9649 3.11719 56.0805 3.63826 55.7194 4.1738L53.639 7.32918C53.4223 7.63314 53.1623 7.95157 52.9167 8.21211C53.1767 8.42922 53.5379 8.79107 53.6824 9.00819L56.2828 12.8439C56.6439 13.3505 56.5139 13.8715 55.8783 13.8715Z" fill="white"/>
<path d="M60.1056 15.8397V15.1305C60.1056 14.5226 60.3223 14.3199 60.9146 14.3199H61.9404C62.5616 14.3199 62.8649 14.1896 63.0961 13.6975L63.2261 13.4225L58.3143 4.11559C58.0109 3.5511 58.2565 3.13135 58.8921 3.13135H60.0045C60.5824 3.13135 60.8424 3.23267 61.0591 3.65242L63.1105 7.87889C63.5873 8.84866 64.1218 9.96317 64.5407 10.9329C64.9741 9.99212 65.4653 8.90656 65.9276 7.96573L68.0224 3.65242C68.2102 3.24714 68.4991 3.13135 69.077 3.13135H70.1894C70.8395 3.13135 71.0706 3.56557 70.7672 4.11559L65.1764 14.7541C64.5263 15.9844 63.7895 16.6647 62.1137 16.6647H60.8857C60.3079 16.6647 60.1056 16.4476 60.1056 15.8397Z" fill="white"/>
<path d="M85.874 8.50194C85.874 11.9179 83.3458 14.0456 79.9364 14.0456C78.4629 14.0456 77.336 13.6837 76.5415 13.235V16.1588C76.5415 16.7667 76.3248 16.9694 75.7325 16.9694H74.8801C74.2734 16.9694 74.0711 16.7522 74.0711 16.1588V5.47683H73.2765C72.6698 5.47683 72.4675 5.25972 72.4675 4.66628V3.94257C72.4675 3.33465 72.6842 3.13201 73.2765 3.13201H75.3569C75.9636 3.13201 76.1659 3.34913 76.1659 3.94257V4.00046C76.9749 3.46492 78.2028 2.94385 79.9364 2.94385C83.3458 2.95832 85.874 5.08603 85.874 8.50194ZM83.3025 8.50194C83.3025 6.5045 81.6989 5.38999 79.7053 5.38999C78.2751 5.38999 77.1049 5.99791 76.5559 6.49003V10.5283C77.1193 11.0205 78.2751 11.6284 79.7053 11.6284C81.6989 11.6139 83.3025 10.4994 83.3025 8.50194Z" fill="white"/>
<path d="M99.3331 7.66261C99.3331 8.27053 99.1164 8.47317 98.5241 8.47317H97.6718C97.065 8.47317 96.8627 8.29948 96.8627 7.66261C96.8627 6.07045 96.256 5.36121 94.8113 5.36121C93.4389 5.36121 92.2976 6.21519 91.662 7.25734V13.0615C91.662 13.6694 91.4453 13.872 90.8529 13.872H90.0006C89.3938 13.872 89.1916 13.6549 89.1916 13.0615V5.47701H88.397C87.7903 5.47701 87.588 5.2599 87.588 4.66645V3.94274C87.588 3.33483 87.8047 3.13219 88.397 3.13219H90.4773C91.0841 3.13219 91.2863 3.3493 91.2863 3.94274V4.6375C92.052 3.78353 93.2222 2.9585 95.2158 2.9585C98.134 2.9585 99.3331 4.6954 99.3331 7.66261Z" fill="white"/>
<path d="M100.866 8.50212C100.866 5.31779 103.553 2.9585 107.122 2.9585C110.661 2.9585 113.334 5.31779 113.334 8.50212C113.334 11.7009 110.647 14.0602 107.122 14.0602C103.553 14.0602 100.866 11.7009 100.866 8.50212ZM110.878 8.50212C110.878 6.64942 109.245 5.30332 107.122 5.30332C104.955 5.30332 103.322 6.66389 103.322 8.50212C103.322 10.3693 104.955 11.7299 107.122 11.7299C109.26 11.7299 110.878 10.3693 110.878 8.50212Z" fill="white"/>
<defs>
<filter id="filter0_f_1_798" x="-8.92896" y="-8.92799" width="33.2092" height="34.8574" filterUnits="userSpaceOnUse" color-interpolation-filters="sRGB">
<feFlood flood-opacity="0" result="BackgroundImageFix"/>
<feBlend mode="normal" in="SourceGraphic" in2="BackgroundImageFix" result="shape"/>
<feGaussianBlur stdDeviation="4.46473" result="effect1_foregroundBlur_1_798"/>
</filter>
</defs>
</svg>
